PathFileType	4	(X/Y/Z)	C:\Users\°ÂÌØÂü\Desktop\20210112\bx_n_0_1802-Unnamed.trc
DataRate	CameraRate	NumFrames	NumMarkers	Units	OrigDataRate	OrigDataStartFrame	OrigNumFrames
50.00	50.00	       5	0	mm	50.00	107	       425
Frame#	Time	
		

107	2.120	-576.62201	-6.55025	1054.07324	-583.62524	240.80687	1064.18481	-665.48590	284.78314	872.24255	-569.13281	-4.31342	801.15222	-572.01398	220.87683	791.25525	-676.55865	269.92532	743.72906	-710.60596	250.33173	643.02142	-680.23608	142.16423	576.27466	-657.42737	18.34152	517.22247	-714.41327	246.34250	575.98016	-664.09552	202.61473	533.79175	-756.13892	257.39722	503.06412	-715.99872	73.60854	215.65488	-649.21985	-66.43449	163.09930				-764.67719	225.12430	206.32568	-608.18158	-74.02088	159.47861	-882.55115	296.30576	144.91371	-671.59766	55.92199	156.24985	-597.17389	26.34892	166.08241	-551.38300	-31.23710	165.83455	-517.57556	-72.68999	143.51106	-588.47241	209.87817	173.97195	-653.93701	292.49478	156.33803	-616.86743	298.98318	158.58994	-552.95929	246.79207	166.58061	-528.06567	304.17868	146.70096	-695.53259	123.49902	1847.59448	-710.64270	291.13934	1525.64832	-794.09998	177.53514	185.49124	-684.10895	-70.75128	1537.90039	-791.17212	42.73271	176.32108	-778.46014	94.80175	1054.09167	-748.88269	-44.74516	488.71152	-756.18665	-16.00416	207.63937	-875.87335	-78.57735	141.34627	-641.82843	-72.16376	869.68384	-703.27063	-31.35566	567.23053	-674.21027	165.98135	156.93889	-586.27185	106.80528	1353.89697	-683.48694	76.34829	573.30670	-664.80188	-62.44442	756.86987	-692.23566	-34.29639	614.15796	-712.08575	149.40222	216.75848	
108	2.140	-576.79114	-6.46209	1053.90906	-583.83698	240.79970	1064.15039	-665.60876	285.07727	872.06714	-569.06598	-4.43191	801.20221	-571.98669	220.97754	791.33417	-676.55865	269.92532	743.72906	-710.65582	250.23222	643.00073	-680.21332	142.12849	576.56824	-657.28430	18.41298	517.29285	-714.57635	246.63480	575.95880	-664.12347	202.75630	533.76501	-756.09479	257.48282	503.07947	-716.11572	73.71350	215.53474	-649.36115	-66.22820	162.89557				-764.74188	225.24525	206.34657	-608.15662	-73.86655	159.26709	-882.37628	296.02225	144.68523	-672.10388	55.41050	155.58578	-597.18970	26.27309	166.01312	-551.42255	-31.12420	165.93170	-517.43011	-72.85855	143.62971	-588.41199	209.90446	174.07028	-654.02783	292.52615	156.72128	-616.82892	299.01083	158.47389	-553.07562	246.67940	166.46645	-528.06512	304.10474	146.73299	-695.67682	123.56429	1847.66040	-711.54297	290.52426	1525.72925	-794.20038	177.46793	185.63692	-684.23151	-70.73996	1537.92175	-791.10895	42.84765	176.29877	-778.40747	94.90377	1053.96655	-748.76160	-44.80003	488.84509	-756.18665	-16.00416	207.63937	-875.95648	-78.79716	141.44162	-641.79877	-72.14899	869.74957	-703.27063	-31.35566	567.23053	-674.21027	165.98135	156.93889	-586.38245	106.97784	1353.95422	-683.59625	76.35060	573.44678	-664.80188	-62.44442	756.86987	-692.38733	-34.05175	613.85614	-712.83014	149.88983	216.00174	
109	2.160	-576.87256	-6.22172	1053.93298	-583.72668	241.17847	1064.37317	-665.60876	285.07727	872.06714	-569.15405	-4.21694	801.07489	-572.02631	220.98798	791.41101	-676.55865	269.92532	743.72906	-710.67133	250.32155	643.04926	-680.39319	142.12016	576.40814	-657.27399	18.35202	517.14038	-714.25049	246.44064	575.90277	-664.03052	202.69604	533.79333	-756.09479	257.48282	503.07947	-716.29468	73.40015	215.42036	-649.25732	-66.30755	162.99075				-764.78583	225.17699	206.25764	-608.15631	-73.78202	159.32179	-882.46899	296.20218	144.70729	-671.23279	55.91015	156.38145	-597.17389	26.34892	166.08241	-551.47119	-31.40084	165.88359	-517.43011	-72.85855	143.62971	-588.45544	209.95322	173.86987	-653.93701	292.49478	156.33803	-616.82892	299.01083	158.47389	-552.98572	246.77032	166.49821	-528.10059	304.06805	146.61795	-695.85944	123.29787	1847.43921	-711.70294	290.80148	1525.74500	-794.26801	177.42610	185.68095	-684.27173	-70.72998	1537.89709	-791.00299	42.68097	176.40434	-778.59436	94.79744	1053.99072	-748.76160	-44.80003	488.84509	-756.19641	-16.26549	207.76526	-875.87817	-78.62728	141.29668	-641.78589	-72.09073	869.72253	-703.26624	-31.46323	567.17273	-674.39874	165.81853	157.11981	-586.60388	107.18324	1353.98865	-683.49866	76.43266	573.22217	-664.72260	-62.35081	756.88525	-692.42328	-34.16632	613.92572	-712.26044	149.82291	216.30444	
110	2.180	-576.85663	-6.18657	1053.97644	-583.78607	241.00372	1064.22241	-665.60876	285.07727	872.06714	-569.02002	-4.21513	801.12628	-572.02631	220.98798	791.41101	-676.55865	269.92532	743.72906	-710.50647	250.58084	643.33154	-680.27600	142.22884	576.43500	-657.31268	18.45125	516.99084	-714.48718	246.48093	575.86072	-663.99310	202.59784	533.87134	-756.09479	257.48282	503.07947	-716.08569	73.50237	215.33305	-649.27332	-66.24194	162.99774				-764.72260	225.16110	206.37801	-608.18701	-73.77353	159.25438	-882.45593	296.22400	144.77756	-671.20172	55.89884	156.41064	-597.20221	26.36592	165.92680	-551.37335	-31.10524	165.94858	-517.43011	-72.85855	143.62971	-588.45544	209.95322	173.86987	-653.92603	292.41302	156.42152	-616.91809	298.94818	158.53421	-553.11395	246.70007	166.62643	-528.13831	304.00220	146.62164	-695.89459	123.42242	1847.58093	-711.92249	291.01086	1525.62280	-794.15057	177.39452	185.57652	-684.24237	-70.69721	1537.74402	-791.02789	42.57882	176.35445	-778.59436	94.79744	1053.99072	-748.83032	-44.78273	488.78604	-756.14026	-16.18129	207.60570	-876.02106	-78.78465	141.43279	-641.78802	-72.09711	869.71118	-703.03387	-31.27000	567.32770	-674.39874	165.81853	157.11981	-586.60388	107.18324	1353.98865	-683.70300	76.46175	573.38525	-664.72260	-62.35081	756.88525	-692.18201	-34.17107	613.94971	-712.26044	149.82291	216.30444	
111	2.200	-576.86145	-6.13734	1054.04419	-583.78973	241.20369	1064.41443	-665.56586	285.00266	871.83862	-568.95941	-4.14664	801.23743	-572.03284	221.04543	791.33142	-676.55865	269.92532	743.72906	-710.51550	250.49600	643.38599	-680.21332	142.12849	576.56824	-657.04999	18.65487	517.07428	-714.38110	246.52104	575.98169	-663.99854	202.81407	533.85187	-755.97266	257.43777	503.01486	-716.20642	73.25439	215.45998	-649.40790	-66.22804	162.97461				-764.72760	225.10893	206.35194	-608.16626	-73.68277	159.35109	-882.48029	296.33026	144.85162	-671.43475	55.98367	156.19160	-597.17389	26.34892	166.08241	-551.41241	-31.30210	165.95468	-517.69714	-72.69646	143.49713	-588.47919	210.04767	174.04817	-654.06018	292.50006	156.53090	-616.87952	298.97583	158.41817	-553.08643	246.63824	166.44574	-528.22528	304.04181	146.51495	-696.00244	123.28976	1847.52979	-712.11316	291.02264	1525.72656	-794.18396	177.69534	185.44365	-684.32935	-70.70451	1537.87524	-791.09991	42.68074	176.25543	-778.53632	94.97358	1053.76343	-748.62189	-44.50794	488.85608	-756.06921	-16.00741	207.53259	-875.99792	-78.69180	141.55168	-641.78589	-72.09073	869.72253	-703.11963	-31.02988	567.08057	-674.28766	165.97862	157.10257	-586.65491	107.20277	1354.04016	-683.48694	76.34829	573.30670	-664.71790	-62.29355	756.93109	-692.11078	-34.23469	614.07532	-712.17847	149.44896	216.71114	
